<svg width="222" height="203" viewBox="0 0 182 213" fill="none" xmlns="http://www.w3.org/2000/svg">
<g id="ameh-logo">
<g id="Vector 3" filter="url(#filter0_d)">
<path d="M126.71 51C37.7042 116.84 34.8713 117.656 105.605 117.656" stroke="#06FBEC" stroke-width="10"/>
</g>
<g id="Vector 4" filter="url(#filter1_d)">
<path d="M105.32 82.2188C130.21 154.058 133.754 153.093 113.974 153.093" stroke="#06FBEC" stroke-width="10"/>
</g>
<path id="me" d="M77.9961 160.424C77.918 161.094 77.5436 161.43 76.873 161.43C76.0202 161.43 75.5938 160.814 75.5938 159.584C75.5938 157.592 75.7012 155.889 75.916 154.477C76.0853 153.376 76.1699 152.296 76.1699 151.234C76.1699 150.98 76.2513 150.769 76.4141 150.6C76.5768 150.424 76.8047 150.336 77.0977 150.336C78.0742 150.336 78.5625 150.928 78.5625 152.113C78.5625 152.497 78.39 153.477 78.0449 155.053C77.8366 155.99 77.7324 156.671 77.7324 157.094C79.5944 153.005 81.2741 150.961 82.7715 150.961C83.377 150.961 83.862 151.202 84.2266 151.684C84.5977 152.165 84.7897 153.233 84.8027 154.887C84.8092 156.397 84.8874 157.152 85.0371 157.152C85.1543 157.152 85.5612 156.42 86.2578 154.955C87.0326 153.334 87.6934 152.263 88.2402 151.742C88.7936 151.221 89.373 150.961 89.9785 150.961C90.7012 150.961 91.2253 151.273 91.5508 151.898C91.8763 152.517 92.1042 153.565 92.2344 155.043C92.332 156.215 92.4622 157.1 92.625 157.699C92.7943 158.298 93.0807 158.695 93.4844 158.891C93.8099 159.047 93.9727 159.281 93.9727 159.594C93.9727 159.874 93.7871 160.157 93.416 160.443C93.0449 160.723 92.6673 160.863 92.2832 160.863C91.6191 160.863 91.0983 160.538 90.7207 159.887C90.3496 159.229 90.099 157.914 89.9688 155.941C89.8971 154.991 89.819 154.363 89.7344 154.057C89.6562 153.744 89.5358 153.588 89.373 153.588C89.2298 153.588 89.0215 153.822 88.748 154.291C88.4746 154.753 88.0026 155.678 87.332 157.064C86.7396 158.314 86.2285 159.187 85.7988 159.682C85.3757 160.176 84.9199 160.424 84.4316 160.424C84.054 160.424 83.6732 160.261 83.2891 159.936C82.9115 159.61 82.7064 158.428 82.6738 156.391C82.6413 154.574 82.5241 153.666 82.3223 153.666C82.0488 153.666 81.3913 154.473 80.3496 156.088C79.3079 157.702 78.5234 159.148 77.9961 160.424ZM108.158 157.641C108.158 158.318 107.589 159.128 106.449 160.072C105.31 161.01 104.024 161.479 102.592 161.479C101.492 161.479 100.626 161.133 99.9941 160.443C99.3626 159.747 99.0469 158.78 99.0469 157.543C99.0469 155.72 99.6914 154.011 100.98 152.416C102.27 150.821 103.646 150.023 105.111 150.023C105.84 150.023 106.426 150.255 106.869 150.717C107.312 151.179 107.533 151.729 107.533 152.367C107.533 153.5 106.99 154.581 105.902 155.609C104.815 156.632 103.422 157.338 101.723 157.729C101.527 157.774 101.43 157.891 101.43 158.08C101.43 158.393 101.566 158.692 101.84 158.979C102.12 159.258 102.491 159.398 102.953 159.398C104.262 159.398 105.561 158.725 106.85 157.377C107.097 157.117 107.338 156.986 107.572 156.986C107.963 156.986 108.158 157.204 108.158 157.641ZM101.605 155.912C102.634 155.704 103.539 155.264 104.32 154.594C105.108 153.923 105.502 153.314 105.502 152.768C105.502 152.553 105.44 152.374 105.316 152.23C105.199 152.081 105.046 152.006 104.857 152.006C104.291 152.006 103.663 152.423 102.973 153.256C102.283 154.089 101.827 154.975 101.605 155.912Z" fill="#E27DA8"/>
</g>
<defs>
<filter id="filter0_d" x="0.917786" y="0.980286" width="178.766" height="175.676" filterUnits="userSpaceOnUse" color-interpolation-filters="sRGB">
<feFlood flood-opacity="0" result="BackgroundImageFix"/>
<feColorMatrix in="SourceAlpha" type="matrix" values="0 0 0 0 0 0 0 0 0 0 0 0 0 0 0 0 0 0 127 0"/>
<feOffset dy="4"/>
<feGaussianBlur stdDeviation="25"/>
<feColorMatrix type="matrix" values="0 0 0 0 0 0 0 0 0 0 0 0 0 0 0 0 0 0 0.25 0"/>
<feBlend mode="normal" in2="BackgroundImageFix" result="effect1_dropShadow"/>
<feBlend mode="normal" in="SourceGraphic" in2="effect1_dropShadow" result="shape"/>
</filter>
<filter id="filter1_d" x="50.5952" y="34.5818" width="131.115" height="177.512" filterUnits="userSpaceOnUse" color-interpolation-filters="sRGB">
<feFlood flood-opacity="0" result="BackgroundImageFix"/>
<feColorMatrix in="SourceAlpha" type="matrix" values="0 0 0 0 0 0 0 0 0 0 0 0 0 0 0 0 0 0 127 0"/>
<feOffset dy="4"/>
<feGaussianBlur stdDeviation="25"/>
<feColorMatrix type="matrix" values="0 0 0 0 0 0 0 0 0 0 0 0 0 0 0 0 0 0 0.25 0"/>
<feBlend mode="normal" in2="BackgroundImageFix" result="effect1_dropShadow"/>
<feBlend mode="normal" in="SourceGraphic" in2="effect1_dropShadow" result="shape"/>
</filter>
</defs>
</svg>
