<svg width="181" height="32" viewBox="0 0 181 32" fill="none" xmlns="http://www.w3.org/2000/svg">
<mask id="path-1-outside-1" maskUnits="userSpaceOnUse" x="0" y="0" width="181" height="32" fill="black">
<rect fill="white" width="181" height="32"/>
<path d="M10.8832 18.077C8.74374 20.9117 6.6775 22.3291 4.68448 22.3291C3.95235 22.3291 3.3219 22.0391 2.79314 21.4591C2.26438 20.8791 2 20.1398 2 19.2411C2 17.0763 2.95991 14.7726 4.87972 12.33C6.79953 9.87921 8.73561 8.65383 10.688 8.65383C11.6804 8.65383 12.3312 9.15624 12.6403 10.1611C13.5758 10.1611 14.0436 10.5205 14.0436 11.2394C14.0436 11.5825 13.9541 12.2034 13.7751 13.102C13.4497 14.7848 13.287 16.1287 13.287 17.1335C13.287 18.1791 13.3562 18.9144 13.4945 19.3392C13.6409 19.764 13.7466 20.0417 13.8117 20.1724C13.8768 20.3031 14.072 20.442 14.3974 20.5891C14.7228 20.7443 14.8855 20.9608 14.8855 21.2385C14.8855 21.6551 14.674 22.0023 14.251 22.2801C13.8361 22.5578 13.4009 22.6967 12.9454 22.6967C11.416 22.6967 10.7286 21.1568 10.8832 18.077ZM10.1511 11.2761C9.32945 11.2761 8.25972 12.1911 6.94188 14.021C5.63218 15.8427 4.97733 17.3908 4.97733 18.6652C4.97733 19.3351 5.11562 19.67 5.39221 19.67C6.35211 19.67 7.53166 18.8163 8.93084 17.109C10.3382 15.3934 11.0418 13.8944 11.0418 12.6118C11.0418 12.2034 10.9483 11.8807 10.7612 11.6438C10.5822 11.3987 10.3788 11.2761 10.1511 11.2761Z"/>
<path d="M24.1128 21.4591C24.0152 22.3005 23.5474 22.7212 22.7095 22.7212C21.6439 22.7212 21.1111 21.9492 21.1111 20.4053C21.1111 17.9055 21.2453 15.7692 21.5137 13.9965C21.7252 12.6159 21.831 11.2598 21.831 9.92823C21.831 9.60963 21.9327 9.34413 22.136 9.13173C22.3394 8.91116 22.6241 8.80088 22.9902 8.80088C24.2104 8.80088 24.8205 9.54427 24.8205 11.0311C24.8205 11.5131 24.605 12.7425 24.1738 14.7195C23.9135 15.8958 23.7833 16.7495 23.7833 17.2805C26.1099 12.1503 28.2087 9.58512 30.0797 9.58512C30.8362 9.58512 31.4422 9.88738 31.8978 10.4919C32.3615 11.0964 32.6015 12.4362 32.6177 14.5112C32.6259 16.4064 32.7235 17.354 32.9106 17.354C33.057 17.354 33.5654 16.435 34.4358 14.5969C35.4039 12.5628 36.2296 11.219 36.9129 10.5654C37.6043 9.91189 38.3283 9.58512 39.0849 9.58512C39.9878 9.58512 40.6427 9.97724 41.0494 10.7615C41.4562 11.5376 41.7409 12.8528 41.9036 14.7072C42.0256 16.1777 42.1883 17.2887 42.3917 18.0403C42.6032 18.7918 42.9611 19.2902 43.4655 19.5352C43.8722 19.7313 44.0756 20.0254 44.0756 20.4175C44.0756 20.7688 43.8437 21.1241 43.38 21.4836C42.9164 21.8349 42.4445 22.0105 41.9646 22.0105C41.1348 22.0105 40.4841 21.602 40.0122 20.7851C39.5486 19.96 39.2354 18.3098 39.0727 15.8346C38.9832 14.6419 38.8856 13.8535 38.7798 13.4696C38.6822 13.0775 38.5317 12.8814 38.3283 12.8814C38.1494 12.8814 37.8891 13.1755 37.5474 13.7637C37.2057 14.3437 36.616 15.5037 35.7781 17.2438C35.0378 18.8123 34.3992 19.9069 33.8623 20.5278C33.3336 21.1487 32.7641 21.4591 32.154 21.4591C31.6822 21.4591 31.2063 21.2549 30.7264 20.8464C30.2546 20.4379 29.9983 18.9552 29.9576 16.3982C29.917 14.119 29.7705 12.9794 29.5184 12.9794C29.1767 12.9794 28.3551 13.9924 27.0535 16.0184C25.752 18.0443 24.7717 19.8579 24.1128 21.4591Z"/>
<path d="M60.551 17.9667C60.551 18.8163 59.8392 19.8334 58.4156 21.0179C56.992 22.1943 55.3854 22.7825 53.5957 22.7825C52.2209 22.7825 51.139 22.3495 50.3499 21.4836C49.5609 20.6095 49.1663 19.3964 49.1663 17.8442C49.1663 15.5568 49.9717 13.4124 51.5824 11.4109C53.193 9.40948 54.9136 8.40875 56.7439 8.40875C57.655 8.40875 58.3871 8.69876 58.9403 9.27877C59.4934 9.85879 59.77 10.5491 59.77 11.3497C59.77 12.7711 59.0908 14.1272 57.7323 15.4179C56.3737 16.7005 54.6329 17.5869 52.5097 18.077C52.2657 18.1342 52.1437 18.2813 52.1437 18.5182C52.1437 18.9103 52.3145 19.2861 52.6561 19.6455C53.0059 19.9968 53.4696 20.1724 54.0472 20.1724C55.6823 20.1724 57.3052 19.3269 58.9159 17.6359C59.225 17.3091 59.526 17.1457 59.8188 17.1457C60.3069 17.1457 60.551 17.4194 60.551 17.9667ZM52.3633 15.7978C53.6486 15.5364 54.7793 14.985 55.7555 14.1435C56.7398 13.3021 57.232 12.5383 57.232 11.8521C57.232 11.5825 57.1547 11.3578 57.0001 11.1781C56.8537 10.9902 56.6625 10.8963 56.4266 10.8963C55.7189 10.8963 54.9339 11.4191 54.0716 12.4648C53.2093 13.5104 52.6399 14.6214 52.3633 15.7978Z"/>
<path d="M69.1071 16.533C70.4575 13.9924 71.6208 12.2646 72.597 11.3497C73.5813 10.4265 74.5737 9.96499 75.5743 9.96499C76.2658 9.96499 76.8393 10.206 77.2948 10.688C77.7585 11.1618 78.0961 12.4035 78.3076 14.4131C78.3971 15.3689 78.511 16.1409 78.6492 16.7291C78.7875 17.3173 78.9421 17.8401 79.1129 18.2976C79.2838 18.7469 79.5278 19.1717 79.8451 19.572C80.0891 19.8906 80.2111 20.1969 80.2111 20.491C80.2111 20.7851 80.0688 21.0547 79.784 21.2998C79.5075 21.5449 79.1861 21.6674 78.8201 21.6674C78.0961 21.6674 77.4534 21.2712 76.8921 20.4788C76.3308 19.6864 75.9973 18.5917 75.8916 17.1947C75.7614 15.4874 75.619 14.3968 75.4645 13.923C75.318 13.4492 75.0699 13.2123 74.7201 13.2123C74.2483 13.2123 73.3291 14.1599 71.9624 16.0551C70.6039 17.9422 69.6237 19.4535 69.0217 20.5891C68.6475 21.4468 68.3587 22.0023 68.1554 22.2556C67.952 22.5088 67.6998 22.6354 67.3988 22.6354C66.9026 22.6354 66.4999 22.5129 66.1908 22.2678C65.8817 22.0228 65.7271 21.6756 65.7271 21.2263C65.7271 21.0057 65.837 20.3154 66.0566 19.1554C66.8863 14.7685 67.5656 10.0998 68.0944 5.14923C68.2245 3.95653 68.4726 3.13552 68.8387 2.68621C69.2129 2.22874 69.5545 2 69.8637 2C70.2948 2 70.669 2.16747 70.9863 2.50241C71.3035 2.83735 71.4622 3.30299 71.4622 3.89934C71.4622 4.8143 71.3523 5.86813 71.1327 7.06083C70.9131 8.25354 70.5023 10.157 69.9003 12.7711C69.5342 14.3478 69.2698 15.6018 69.1071 16.533Z"/>
<path d="M96.6011 17.9667C96.6011 18.8163 95.8893 19.8334 94.4657 21.0179C93.0421 22.1943 91.4355 22.7825 89.6458 22.7825C88.2711 22.7825 87.1891 22.3495 86.4001 21.4836C85.611 20.6095 85.2165 19.3964 85.2165 17.8442C85.2165 15.5568 86.0218 13.4124 87.6325 11.4109C89.2432 9.40948 90.9637 8.40875 92.794 8.40875C93.7051 8.40875 94.4372 8.69876 94.9904 9.27877C95.5436 9.85879 95.8202 10.5491 95.8202 11.3497C95.8202 12.7711 95.1409 14.1272 93.7824 15.4179C92.4239 16.7005 90.683 17.5869 88.5599 18.077C88.3158 18.1342 88.1938 18.2813 88.1938 18.5182C88.1938 18.9103 88.3646 19.2861 88.7063 19.6455C89.0561 19.9968 89.5198 20.1724 90.0973 20.1724C91.7324 20.1724 93.3553 19.3269 94.966 17.6359C95.2751 17.3091 95.5761 17.1457 95.869 17.1457C96.3571 17.1457 96.6011 17.4194 96.6011 17.9667ZM88.4134 15.7978C89.6987 15.5364 90.8295 14.985 91.8056 14.1435C92.7899 13.3021 93.2821 12.5383 93.2821 11.8521C93.2821 11.5825 93.2048 11.3578 93.0503 11.1781C92.9038 10.9902 92.7127 10.8963 92.4768 10.8963C91.769 10.8963 90.984 11.4191 90.1217 12.4648C89.2594 13.5104 88.69 14.6214 88.4134 15.7978Z"/>
<path d="M110.746 18.4324C109.843 19.4535 108.789 20.295 107.586 20.9567C106.39 21.6102 105.357 21.937 104.486 21.937C103.624 21.937 102.953 21.6837 102.473 21.1772C102.001 20.6708 101.765 19.9723 101.765 19.0818C101.765 17.8156 102.241 16.4064 103.193 14.8543C104.153 13.3021 105.479 11.9542 107.171 10.8105C108.871 9.65864 110.4 9.08271 111.759 9.08271C112.507 9.08271 113.154 9.28694 113.699 9.6954C113.829 9.79344 113.943 9.87513 114.04 9.94048C114.236 10.0794 114.415 10.3367 114.577 10.7125C114.748 11.0801 114.834 11.3783 114.834 11.607C114.834 11.754 114.679 12.2483 114.37 13.0897C114.053 13.9638 113.829 14.8134 113.699 15.6385C113.577 16.4554 113.329 18.5018 112.954 21.7777C112.621 24.6287 111.828 26.7119 110.575 28.0271C109.322 29.3424 107.931 30 106.402 30C104.799 30 103.242 29.4567 101.728 28.3702C100.224 27.2919 99.4711 26.4015 99.4711 25.6989C99.4711 25.078 99.772 24.7676 100.374 24.7676C100.61 24.7676 101.09 25.0045 101.814 25.4783C103.669 26.7037 105.259 27.3164 106.585 27.3164C107.594 27.3164 108.44 26.6792 109.123 25.4048C109.806 24.1386 110.347 21.8144 110.746 18.4324ZM111.039 11.6193C110.437 11.6193 109.648 11.9828 108.671 12.7098C107.695 13.4287 106.792 14.4009 105.963 15.6263C105.133 16.8516 104.718 17.8687 104.718 18.6775C104.718 19.1023 104.873 19.3147 105.182 19.3147C106.231 19.3147 107.272 18.8899 108.305 18.0403C109.339 17.1825 110.172 16.1981 110.807 15.0871C111.45 13.9761 111.771 13.1346 111.771 12.5628C111.771 12.2769 111.698 12.0481 111.551 11.8766C111.405 11.705 111.234 11.6193 111.039 11.6193Z"/>
<path d="M130.296 14.4744C130.215 14.6051 129.597 15.8958 128.441 18.3466C128.344 18.559 128.287 18.6775 128.271 18.702C126.888 21.504 125.822 22.905 125.074 22.905C123.902 22.905 122.877 21.4468 121.999 18.5304C121.12 15.6058 120.681 13.1714 120.681 11.2271C120.681 10.5246 120.844 9.95682 121.169 9.52385C121.503 9.09088 121.974 8.8744 122.584 8.8744C122.967 8.8744 123.304 9.04187 123.597 9.37681C123.898 9.70357 124.049 10.0181 124.049 10.3204L123.939 11.9379C123.906 12.428 123.89 12.9182 123.89 13.4083C123.89 14.2743 124.069 15.4261 124.427 16.8639C124.785 18.2935 125.037 19.0083 125.183 19.0083C125.289 19.0083 125.7 18.2813 126.416 16.8271C127.351 14.9237 128.108 13.4859 128.686 12.5138H128.673C129.487 10.9616 130.207 9.94457 130.833 9.46258C131.362 9.51977 131.785 9.67907 132.102 9.94048C132.428 10.2019 132.59 10.5082 132.59 10.8595C132.59 11.1373 132.578 11.3415 132.554 11.4722C132.521 11.6111 132.505 11.7377 132.505 11.8521C132.505 14.3192 133.184 16.5371 134.543 18.5059C134.632 18.5958 134.709 18.5427 134.774 18.3466C134.848 18.1505 135.018 17.546 135.287 16.533C135.783 14.6541 136.344 13.0203 136.971 11.6315C137.597 10.2346 138.11 9.36864 138.508 9.0337C138.907 8.69876 139.358 8.53129 139.863 8.53129C140.18 8.53129 140.452 8.65383 140.68 8.89891C140.916 9.13581 141.034 9.39723 141.034 9.68315C141.034 10.0263 140.961 10.2958 140.814 10.4919C139.765 11.897 138.834 13.8413 138.02 16.3247C137.182 18.898 136.601 20.4706 136.275 21.0425C135.95 21.6143 135.673 21.9002 135.446 21.9002C134.689 21.9002 134.067 21.7613 133.579 21.4836C133.099 21.1977 132.631 20.6708 132.175 19.9028C131.728 19.1349 131.321 18.1669 130.955 16.9987C130.589 15.8305 130.369 14.9891 130.296 14.4744Z"/>
<path d="M154.764 17.6972C153.983 19.1268 153.076 20.2623 152.043 21.1037C151.018 21.9451 149.977 22.3659 148.919 22.3659C148.293 22.3659 147.658 22.035 147.016 21.3733C146.381 20.7116 146.064 19.6945 146.064 18.3221C146.064 17.35 146.308 15.8836 146.796 13.923C147.219 12.3055 147.431 11.076 147.431 10.2346C147.756 9.54836 148.264 9.20525 148.956 9.20525C149.428 9.20525 149.802 9.36455 150.078 9.68315C150.363 9.99358 150.505 10.3081 150.505 10.6267C150.505 11.2067 150.302 12.0318 149.895 13.102C149.659 13.7392 149.403 14.6419 149.127 15.8101C148.858 16.9701 148.724 17.7135 148.724 18.0403C148.724 19.1268 148.948 19.67 149.395 19.67C150.103 19.67 151.059 18.9879 152.263 17.6236C153.467 16.2594 154.252 14.8624 154.618 13.4328C154.984 12.0359 155.309 11.1209 155.594 10.688C155.879 10.255 156.281 10.0385 156.802 10.0385C157.648 10.0385 158.071 10.5123 158.071 11.46C158.071 11.5988 158.002 11.8766 157.863 12.2932C157.383 13.7392 157.143 15.3689 157.143 17.1825C157.143 19.3065 157.501 20.5768 158.217 20.9934C158.453 21.1323 158.571 21.3039 158.571 21.5081C158.571 21.8022 158.364 22.0799 157.949 22.3414C157.534 22.6028 157.139 22.7335 156.765 22.7335C156.123 22.7335 155.626 22.2801 155.277 21.3733C154.935 20.4584 154.764 19.233 154.764 17.6972Z"/>
<path d="M167.896 16.533C169.246 13.9924 170.41 12.2646 171.386 11.3497C172.37 10.4265 173.363 9.96499 174.363 9.96499C175.055 9.96499 175.628 10.206 176.084 10.688C176.547 11.1618 176.885 12.4035 177.096 14.4131C177.186 15.3689 177.3 16.1409 177.438 16.7291C177.576 17.3173 177.731 17.8401 177.902 18.2976C178.073 18.7469 178.317 19.1717 178.634 19.572C178.878 19.8906 179 20.1969 179 20.491C179 20.7851 178.858 21.0547 178.573 21.2998C178.296 21.5449 177.975 21.6674 177.609 21.6674C176.885 21.6674 176.242 21.2712 175.681 20.4788C175.12 19.6864 174.786 18.5917 174.68 17.1947C174.55 15.4874 174.408 14.3968 174.253 13.923C174.107 13.4492 173.859 13.2123 173.509 13.2123C173.037 13.2123 172.118 14.1599 170.751 16.0551C169.393 17.9422 168.413 19.4535 167.811 20.5891C167.436 21.4468 167.148 22.0023 166.944 22.2556C166.741 22.5088 166.489 22.6354 166.188 22.6354C165.691 22.6354 165.289 22.5129 164.98 22.2678C164.671 22.0228 164.516 21.6756 164.516 21.2263C164.516 21.0057 164.626 20.3154 164.845 19.1554C165.675 14.7685 166.354 10.0998 166.883 5.14923C167.013 3.95653 167.262 3.13552 167.628 2.68621C168.002 2.22874 168.343 2 168.653 2C169.084 2 169.458 2.16747 169.775 2.50241C170.092 2.83735 170.251 3.30299 170.251 3.89934C170.251 4.8143 170.141 5.86813 169.922 7.06083C169.702 8.25354 169.291 10.157 168.689 12.7711C168.323 14.3478 168.059 15.6018 167.896 16.533Z"/>
</mask>
<path d="M10.8832 18.077C8.74374 20.9117 6.6775 22.3291 4.68448 22.3291C3.95235 22.3291 3.3219 22.0391 2.79314 21.4591C2.26438 20.8791 2 20.1398 2 19.2411C2 17.0763 2.95991 14.7726 4.87972 12.33C6.79953 9.87921 8.73561 8.65383 10.688 8.65383C11.6804 8.65383 12.3312 9.15624 12.6403 10.1611C13.5758 10.1611 14.0436 10.5205 14.0436 11.2394C14.0436 11.5825 13.9541 12.2034 13.7751 13.102C13.4497 14.7848 13.287 16.1287 13.287 17.1335C13.287 18.1791 13.3562 18.9144 13.4945 19.3392C13.6409 19.764 13.7466 20.0417 13.8117 20.1724C13.8768 20.3031 14.072 20.442 14.3974 20.5891C14.7228 20.7443 14.8855 20.9608 14.8855 21.2385C14.8855 21.6551 14.674 22.0023 14.251 22.2801C13.8361 22.5578 13.4009 22.6967 12.9454 22.6967C11.416 22.6967 10.7286 21.1568 10.8832 18.077ZM10.1511 11.2761C9.32945 11.2761 8.25972 12.1911 6.94188 14.021C5.63218 15.8427 4.97733 17.3908 4.97733 18.6652C4.97733 19.3351 5.11562 19.67 5.39221 19.67C6.35211 19.67 7.53166 18.8163 8.93084 17.109C10.3382 15.3934 11.0418 13.8944 11.0418 12.6118C11.0418 12.2034 10.9483 11.8807 10.7612 11.6438C10.5822 11.3987 10.3788 11.2761 10.1511 11.2761Z" stroke="#0CF6E8" stroke-width="4" mask="url(#path-1-outside-1)"/>
<path d="M24.1128 21.4591C24.0152 22.3005 23.5474 22.7212 22.7095 22.7212C21.6439 22.7212 21.1111 21.9492 21.1111 20.4053C21.1111 17.9055 21.2453 15.7692 21.5137 13.9965C21.7252 12.6159 21.831 11.2598 21.831 9.92823C21.831 9.60963 21.9327 9.34413 22.136 9.13173C22.3394 8.91116 22.6241 8.80088 22.9902 8.80088C24.2104 8.80088 24.8205 9.54427 24.8205 11.0311C24.8205 11.5131 24.605 12.7425 24.1738 14.7195C23.9135 15.8958 23.7833 16.7495 23.7833 17.2805C26.1099 12.1503 28.2087 9.58512 30.0797 9.58512C30.8362 9.58512 31.4422 9.88738 31.8978 10.4919C32.3615 11.0964 32.6015 12.4362 32.6177 14.5112C32.6259 16.4064 32.7235 17.354 32.9106 17.354C33.057 17.354 33.5654 16.435 34.4358 14.5969C35.4039 12.5628 36.2296 11.219 36.9129 10.5654C37.6043 9.91189 38.3283 9.58512 39.0849 9.58512C39.9878 9.58512 40.6427 9.97724 41.0494 10.7615C41.4562 11.5376 41.7409 12.8528 41.9036 14.7072C42.0256 16.1777 42.1883 17.2887 42.3917 18.0403C42.6032 18.7918 42.9611 19.2902 43.4655 19.5352C43.8722 19.7313 44.0756 20.0254 44.0756 20.4175C44.0756 20.7688 43.8437 21.1241 43.38 21.4836C42.9164 21.8349 42.4445 22.0105 41.9646 22.0105C41.1348 22.0105 40.4841 21.602 40.0122 20.7851C39.5486 19.96 39.2354 18.3098 39.0727 15.8346C38.9832 14.6419 38.8856 13.8535 38.7798 13.4696C38.6822 13.0775 38.5317 12.8814 38.3283 12.8814C38.1494 12.8814 37.8891 13.1755 37.5474 13.7637C37.2057 14.3437 36.616 15.5037 35.7781 17.2438C35.0378 18.8123 34.3992 19.9069 33.8623 20.5278C33.3336 21.1487 32.7641 21.4591 32.154 21.4591C31.6822 21.4591 31.2063 21.2549 30.7264 20.8464C30.2546 20.4379 29.9983 18.9552 29.9576 16.3982C29.917 14.119 29.7705 12.9794 29.5184 12.9794C29.1767 12.9794 28.3551 13.9924 27.0535 16.0184C25.752 18.0443 24.7717 19.8579 24.1128 21.4591Z" stroke="#0CF6E8" stroke-width="4" mask="url(#path-1-outside-1)"/>
<path d="M60.551 17.9667C60.551 18.8163 59.8392 19.8334 58.4156 21.0179C56.992 22.1943 55.3854 22.7825 53.5957 22.7825C52.2209 22.7825 51.139 22.3495 50.3499 21.4836C49.5609 20.6095 49.1663 19.3964 49.1663 17.8442C49.1663 15.5568 49.9717 13.4124 51.5824 11.4109C53.193 9.40948 54.9136 8.40875 56.7439 8.40875C57.655 8.40875 58.3871 8.69876 58.9403 9.27877C59.4934 9.85879 59.77 10.5491 59.77 11.3497C59.77 12.7711 59.0908 14.1272 57.7323 15.4179C56.3737 16.7005 54.6329 17.5869 52.5097 18.077C52.2657 18.1342 52.1437 18.2813 52.1437 18.5182C52.1437 18.9103 52.3145 19.2861 52.6561 19.6455C53.0059 19.9968 53.4696 20.1724 54.0472 20.1724C55.6823 20.1724 57.3052 19.3269 58.9159 17.6359C59.225 17.3091 59.526 17.1457 59.8188 17.1457C60.3069 17.1457 60.551 17.4194 60.551 17.9667ZM52.3633 15.7978C53.6486 15.5364 54.7793 14.985 55.7555 14.1435C56.7398 13.3021 57.232 12.5383 57.232 11.8521C57.232 11.5825 57.1547 11.3578 57.0001 11.1781C56.8537 10.9902 56.6625 10.8963 56.4266 10.8963C55.7189 10.8963 54.9339 11.4191 54.0716 12.4648C53.2093 13.5104 52.6399 14.6214 52.3633 15.7978Z" stroke="#0CF6E8" stroke-width="4" mask="url(#path-1-outside-1)"/>
<path d="M69.1071 16.533C70.4575 13.9924 71.6208 12.2646 72.597 11.3497C73.5813 10.4265 74.5737 9.96499 75.5743 9.96499C76.2658 9.96499 76.8393 10.206 77.2948 10.688C77.7585 11.1618 78.0961 12.4035 78.3076 14.4131C78.3971 15.3689 78.511 16.1409 78.6492 16.7291C78.7875 17.3173 78.9421 17.8401 79.1129 18.2976C79.2838 18.7469 79.5278 19.1717 79.8451 19.572C80.0891 19.8906 80.2111 20.1969 80.2111 20.491C80.2111 20.7851 80.0688 21.0547 79.784 21.2998C79.5075 21.5449 79.1861 21.6674 78.8201 21.6674C78.0961 21.6674 77.4534 21.2712 76.8921 20.4788C76.3308 19.6864 75.9973 18.5917 75.8916 17.1947C75.7614 15.4874 75.619 14.3968 75.4645 13.923C75.318 13.4492 75.0699 13.2123 74.7201 13.2123C74.2483 13.2123 73.3291 14.1599 71.9624 16.0551C70.6039 17.9422 69.6237 19.4535 69.0217 20.5891C68.6475 21.4468 68.3587 22.0023 68.1554 22.2556C67.952 22.5088 67.6998 22.6354 67.3988 22.6354C66.9026 22.6354 66.4999 22.5129 66.1908 22.2678C65.8817 22.0228 65.7271 21.6756 65.7271 21.2263C65.7271 21.0057 65.837 20.3154 66.0566 19.1554C66.8863 14.7685 67.5656 10.0998 68.0944 5.14923C68.2245 3.95653 68.4726 3.13552 68.8387 2.68621C69.2129 2.22874 69.5545 2 69.8637 2C70.2948 2 70.669 2.16747 70.9863 2.50241C71.3035 2.83735 71.4622 3.30299 71.4622 3.89934C71.4622 4.8143 71.3523 5.86813 71.1327 7.06083C70.9131 8.25354 70.5023 10.157 69.9003 12.7711C69.5342 14.3478 69.2698 15.6018 69.1071 16.533Z" stroke="#0CF6E8" stroke-width="4" mask="url(#path-1-outside-1)"/>
<path d="M96.6011 17.9667C96.6011 18.8163 95.8893 19.8334 94.4657 21.0179C93.0421 22.1943 91.4355 22.7825 89.6458 22.7825C88.2711 22.7825 87.1891 22.3495 86.4001 21.4836C85.611 20.6095 85.2165 19.3964 85.2165 17.8442C85.2165 15.5568 86.0218 13.4124 87.6325 11.4109C89.2432 9.40948 90.9637 8.40875 92.794 8.40875C93.7051 8.40875 94.4372 8.69876 94.9904 9.27877C95.5436 9.85879 95.8202 10.5491 95.8202 11.3497C95.8202 12.7711 95.1409 14.1272 93.7824 15.4179C92.4239 16.7005 90.683 17.5869 88.5599 18.077C88.3158 18.1342 88.1938 18.2813 88.1938 18.5182C88.1938 18.9103 88.3646 19.2861 88.7063 19.6455C89.0561 19.9968 89.5198 20.1724 90.0973 20.1724C91.7324 20.1724 93.3553 19.3269 94.966 17.6359C95.2751 17.3091 95.5761 17.1457 95.869 17.1457C96.3571 17.1457 96.6011 17.4194 96.6011 17.9667ZM88.4134 15.7978C89.6987 15.5364 90.8295 14.985 91.8056 14.1435C92.7899 13.3021 93.2821 12.5383 93.2821 11.8521C93.2821 11.5825 93.2048 11.3578 93.0503 11.1781C92.9038 10.9902 92.7127 10.8963 92.4768 10.8963C91.769 10.8963 90.984 11.4191 90.1217 12.4648C89.2594 13.5104 88.69 14.6214 88.4134 15.7978Z" stroke="#0CF6E8" stroke-width="4" mask="url(#path-1-outside-1)"/>
<path d="M110.746 18.4324C109.843 19.4535 108.789 20.295 107.586 20.9567C106.39 21.6102 105.357 21.937 104.486 21.937C103.624 21.937 102.953 21.6837 102.473 21.1772C102.001 20.6708 101.765 19.9723 101.765 19.0818C101.765 17.8156 102.241 16.4064 103.193 14.8543C104.153 13.3021 105.479 11.9542 107.171 10.8105C108.871 9.65864 110.4 9.08271 111.759 9.08271C112.507 9.08271 113.154 9.28694 113.699 9.6954C113.829 9.79344 113.943 9.87513 114.04 9.94048C114.236 10.0794 114.415 10.3367 114.577 10.7125C114.748 11.0801 114.834 11.3783 114.834 11.607C114.834 11.754 114.679 12.2483 114.37 13.0897C114.053 13.9638 113.829 14.8134 113.699 15.6385C113.577 16.4554 113.329 18.5018 112.954 21.7777C112.621 24.6287 111.828 26.7119 110.575 28.0271C109.322 29.3424 107.931 30 106.402 30C104.799 30 103.242 29.4567 101.728 28.3702C100.224 27.2919 99.4711 26.4015 99.4711 25.6989C99.4711 25.078 99.772 24.7676 100.374 24.7676C100.61 24.7676 101.09 25.0045 101.814 25.4783C103.669 26.7037 105.259 27.3164 106.585 27.3164C107.594 27.3164 108.44 26.6792 109.123 25.4048C109.806 24.1386 110.347 21.8144 110.746 18.4324ZM111.039 11.6193C110.437 11.6193 109.648 11.9828 108.671 12.7098C107.695 13.4287 106.792 14.4009 105.963 15.6263C105.133 16.8516 104.718 17.8687 104.718 18.6775C104.718 19.1023 104.873 19.3147 105.182 19.3147C106.231 19.3147 107.272 18.8899 108.305 18.0403C109.339 17.1825 110.172 16.1981 110.807 15.0871C111.45 13.9761 111.771 13.1346 111.771 12.5628C111.771 12.2769 111.698 12.0481 111.551 11.8766C111.405 11.705 111.234 11.6193 111.039 11.6193Z" stroke="#0CF6E8" stroke-width="4" mask="url(#path-1-outside-1)"/>
<path d="M130.296 14.4744C130.215 14.6051 129.597 15.8958 128.441 18.3466C128.344 18.559 128.287 18.6775 128.271 18.702C126.888 21.504 125.822 22.905 125.074 22.905C123.902 22.905 122.877 21.4468 121.999 18.5304C121.12 15.6058 120.681 13.1714 120.681 11.2271C120.681 10.5246 120.844 9.95682 121.169 9.52385C121.503 9.09088 121.974 8.8744 122.584 8.8744C122.967 8.8744 123.304 9.04187 123.597 9.37681C123.898 9.70357 124.049 10.0181 124.049 10.3204L123.939 11.9379C123.906 12.428 123.89 12.9182 123.89 13.4083C123.89 14.2743 124.069 15.4261 124.427 16.8639C124.785 18.2935 125.037 19.0083 125.183 19.0083C125.289 19.0083 125.7 18.2813 126.416 16.8271C127.351 14.9237 128.108 13.4859 128.686 12.5138H128.673C129.487 10.9616 130.207 9.94457 130.833 9.46258C131.362 9.51977 131.785 9.67907 132.102 9.94048C132.428 10.2019 132.59 10.5082 132.59 10.8595C132.59 11.1373 132.578 11.3415 132.554 11.4722C132.521 11.6111 132.505 11.7377 132.505 11.8521C132.505 14.3192 133.184 16.5371 134.543 18.5059C134.632 18.5958 134.709 18.5427 134.774 18.3466C134.848 18.1505 135.018 17.546 135.287 16.533C135.783 14.6541 136.344 13.0203 136.971 11.6315C137.597 10.2346 138.11 9.36864 138.508 9.0337C138.907 8.69876 139.358 8.53129 139.863 8.53129C140.18 8.53129 140.452 8.65383 140.68 8.89891C140.916 9.13581 141.034 9.39723 141.034 9.68315C141.034 10.0263 140.961 10.2958 140.814 10.4919C139.765 11.897 138.834 13.8413 138.02 16.3247C137.182 18.898 136.601 20.4706 136.275 21.0425C135.95 21.6143 135.673 21.9002 135.446 21.9002C134.689 21.9002 134.067 21.7613 133.579 21.4836C133.099 21.1977 132.631 20.6708 132.175 19.9028C131.728 19.1349 131.321 18.1669 130.955 16.9987C130.589 15.8305 130.369 14.9891 130.296 14.4744Z" stroke="#0CF6E8" stroke-width="4" mask="url(#path-1-outside-1)"/>
<path d="M154.764 17.6972C153.983 19.1268 153.076 20.2623 152.043 21.1037C151.018 21.9451 149.977 22.3659 148.919 22.3659C148.293 22.3659 147.658 22.035 147.016 21.3733C146.381 20.7116 146.064 19.6945 146.064 18.3221C146.064 17.35 146.308 15.8836 146.796 13.923C147.219 12.3055 147.431 11.076 147.431 10.2346C147.756 9.54836 148.264 9.20525 148.956 9.20525C149.428 9.20525 149.802 9.36455 150.078 9.68315C150.363 9.99358 150.505 10.3081 150.505 10.6267C150.505 11.2067 150.302 12.0318 149.895 13.102C149.659 13.7392 149.403 14.6419 149.127 15.8101C148.858 16.9701 148.724 17.7135 148.724 18.0403C148.724 19.1268 148.948 19.67 149.395 19.67C150.103 19.67 151.059 18.9879 152.263 17.6236C153.467 16.2594 154.252 14.8624 154.618 13.4328C154.984 12.0359 155.309 11.1209 155.594 10.688C155.879 10.255 156.281 10.0385 156.802 10.0385C157.648 10.0385 158.071 10.5123 158.071 11.46C158.071 11.5988 158.002 11.8766 157.863 12.2932C157.383 13.7392 157.143 15.3689 157.143 17.1825C157.143 19.3065 157.501 20.5768 158.217 20.9934C158.453 21.1323 158.571 21.3039 158.571 21.5081C158.571 21.8022 158.364 22.0799 157.949 22.3414C157.534 22.6028 157.139 22.7335 156.765 22.7335C156.123 22.7335 155.626 22.2801 155.277 21.3733C154.935 20.4584 154.764 19.233 154.764 17.6972Z" stroke="#0CF6E8" stroke-width="4" mask="url(#path-1-outside-1)"/>
<path d="M167.896 16.533C169.246 13.9924 170.41 12.2646 171.386 11.3497C172.37 10.4265 173.363 9.96499 174.363 9.96499C175.055 9.96499 175.628 10.206 176.084 10.688C176.547 11.1618 176.885 12.4035 177.096 14.4131C177.186 15.3689 177.3 16.1409 177.438 16.7291C177.576 17.3173 177.731 17.8401 177.902 18.2976C178.073 18.7469 178.317 19.1717 178.634 19.572C178.878 19.8906 179 20.1969 179 20.491C179 20.7851 178.858 21.0547 178.573 21.2998C178.296 21.5449 177.975 21.6674 177.609 21.6674C176.885 21.6674 176.242 21.2712 175.681 20.4788C175.12 19.6864 174.786 18.5917 174.68 17.1947C174.55 15.4874 174.408 14.3968 174.253 13.923C174.107 13.4492 173.859 13.2123 173.509 13.2123C173.037 13.2123 172.118 14.1599 170.751 16.0551C169.393 17.9422 168.413 19.4535 167.811 20.5891C167.436 21.4468 167.148 22.0023 166.944 22.2556C166.741 22.5088 166.489 22.6354 166.188 22.6354C165.691 22.6354 165.289 22.5129 164.98 22.2678C164.671 22.0228 164.516 21.6756 164.516 21.2263C164.516 21.0057 164.626 20.3154 164.845 19.1554C165.675 14.7685 166.354 10.0998 166.883 5.14923C167.013 3.95653 167.262 3.13552 167.628 2.68621C168.002 2.22874 168.343 2 168.653 2C169.084 2 169.458 2.16747 169.775 2.50241C170.092 2.83735 170.251 3.30299 170.251 3.89934C170.251 4.8143 170.141 5.86813 169.922 7.06083C169.702 8.25354 169.291 10.157 168.689 12.7711C168.323 14.3478 168.059 15.6018 167.896 16.533Z" stroke="#0CF6E8" stroke-width="4" mask="url(#path-1-outside-1)"/>
</svg>
