<svg width="243" height="130" viewBox="0 0 243 130" fill="none" xmlns="http://www.w3.org/2000/svg">
<g clip-path="url(#clip0)">
<path d="M97.5381 126.03V104.016H90.2964V126.03C89.596 126.428 89.0144 127 88.6099 127.69C88.2054 128.379 87.9923 129.162 87.9922 129.958H99.8423C99.8422 129.162 99.6291 128.379 99.2246 127.69C98.8201 127 98.2385 126.428 97.5381 126.03Z" fill="#2F2E41"/>
<path d="M116.956 126.03V104.016H109.714V126.03C109.014 126.428 108.432 127 108.028 127.69C107.623 128.379 107.41 129.162 107.41 129.958H119.26C119.26 129.162 119.047 128.379 118.643 127.69C118.238 127 117.656 126.428 116.956 126.03Z" fill="#2F2E41"/>
<path d="M103.468 124.519C129.91 124.519 151.346 103.403 151.346 77.354C151.346 51.3053 129.91 30.1887 103.468 30.1887C77.0256 30.1887 55.5898 51.3053 55.5898 77.354C55.5898 103.403 77.0256 124.519 103.468 124.519Z" fill="#2F2E41"/>
<path d="M103.467 107.218C113.944 107.218 122.437 104.429 122.437 100.989C122.437 97.5486 113.944 94.7596 103.467 94.7596C92.9895 94.7596 84.4961 97.5486 84.4961 100.989C84.4961 104.429 92.9895 107.218 103.467 107.218Z" fill="white"/>
<path d="M86.306 74.6843C90.7963 74.6843 94.4363 71.0985 94.4363 66.6751C94.4363 62.2517 90.7963 58.6659 86.306 58.6659C81.8158 58.6659 78.1758 62.2517 78.1758 66.6751C78.1758 71.0985 81.8158 74.6843 86.306 74.6843Z" fill="white"/>
<path d="M120.63 74.6843C125.12 74.6843 128.761 71.0985 128.761 66.6751C128.761 62.2517 125.12 58.6659 120.63 58.6659C116.14 58.6659 112.5 62.2517 112.5 66.6751C112.5 71.0985 116.14 74.6843 120.63 74.6843Z" fill="white"/>
<path d="M86.4681 72.8069C89.9605 72.8069 92.7916 70.0179 92.7916 66.5775C92.7916 63.1371 89.9605 60.3481 86.4681 60.3481C82.9757 60.3481 80.1445 63.1371 80.1445 66.5775C80.1445 70.0179 82.9757 72.8069 86.4681 72.8069Z" fill="#3F3D56"/>
<path d="M120.718 72.8069C124.21 72.8069 127.042 70.0179 127.042 66.5775C127.042 63.1371 124.21 60.3481 120.718 60.3481C117.226 60.3481 114.395 63.1371 114.395 66.5775C114.395 70.0179 117.226 72.8069 120.718 72.8069Z" fill="#3F3D56"/>
<path d="M103.469 52.2707C120.931 52.2707 135.087 41.5131 135.087 28.2431C135.087 14.973 120.931 4.21545 103.469 4.21545C86.0073 4.21545 71.8516 14.973 71.8516 28.2431C71.8516 41.5131 86.0073 52.2707 103.469 52.2707Z" fill="#3F3D56"/>
<path d="M103.469 11.6737C110.378 11.6737 115.978 9.06044 115.978 5.83684C115.978 2.61324 110.378 0 103.469 0C96.5612 0 90.9609 2.61324 90.9609 5.83684C90.9609 9.06044 96.5612 11.6737 103.469 11.6737Z" fill="#3F3D56"/>
<path d="M103.819 84.2306C105.9 82.1532 109.101 82.1117 111.803 82.7958C115.024 83.6113 117.766 85.5762 120.749 86.946C122.262 87.6789 123.881 88.1764 125.548 88.4207C127.883 88.6979 130.25 88.3259 132.382 87.3468C134.513 86.3676 136.324 84.8205 137.609 82.8803C138.551 81.4029 139.17 79.7486 139.427 78.0225C139.685 76.2965 139.575 74.5366 139.104 72.8548C139.066 72.7344 138.981 72.6333 138.869 72.5729C138.756 72.5125 138.625 72.4975 138.501 72.5311C138.378 72.5646 138.272 72.6441 138.207 72.7527C138.142 72.8613 138.122 72.9906 138.152 73.1134C138.982 76.0719 138.586 79.2342 137.051 81.9052C135.885 83.8545 134.159 85.4197 132.091 86.403C130.022 87.3864 127.704 87.7439 125.43 87.4302C123.797 87.1472 122.218 86.621 120.746 85.8698C117.862 84.4788 115.155 82.6257 112.007 81.8432C108.974 81.0893 105.441 81.2268 103.12 83.5427C102.673 83.9887 103.371 84.677 103.819 84.2306V84.2306Z" fill="#3F3D56"/>
<path d="M103.821 83.5427C101.77 81.4961 98.755 81.1529 95.9964 81.6208C92.8313 82.1577 90.1086 83.8546 87.3132 85.3077C84.4569 86.7924 81.4117 87.9284 78.1322 87.4108C76.6185 87.1859 75.165 86.6678 73.8556 85.8865C72.5463 85.1051 71.407 84.0759 70.5037 82.8584C69.5066 81.4589 68.8359 79.8596 68.5395 78.1749C68.2432 76.4902 68.3285 74.7618 68.7894 73.1134C68.8191 72.9906 68.7993 72.8613 68.7341 72.7527C68.6689 72.6441 68.5635 72.5646 68.44 72.5311C68.3165 72.4975 68.1847 72.5125 68.0722 72.5729C67.9597 72.6333 67.8754 72.7344 67.8371 72.8548C66.9922 75.8782 67.3236 79.1034 68.7663 81.8987C70.2169 84.6626 72.6886 86.7731 75.6719 87.7951C78.7707 88.8808 82.0415 88.6479 85.0601 87.4332C88.163 86.1845 90.9112 84.1462 94.098 83.0983C97.0398 82.1309 100.767 81.8795 103.123 84.2305C103.57 84.6768 104.268 83.9889 103.821 83.5427V83.5427Z" fill="#3F3D56"/>
<path d="M103.48 87.3905C105.48 87.3905 107.101 85.7935 107.101 83.8236C107.101 81.8536 105.48 80.2566 103.48 80.2566C101.48 80.2566 99.8594 81.8536 99.8594 83.8236C99.8594 85.7935 101.48 87.3905 103.48 87.3905Z" fill="#3F3D56"/>
<path d="M83.7112 65.7526C84.4384 65.7526 85.0279 65.1719 85.0279 64.4555C85.0279 63.7392 84.4384 63.1584 83.7112 63.1584C82.984 63.1584 82.3945 63.7392 82.3945 64.4555C82.3945 65.1719 82.984 65.7526 83.7112 65.7526Z" fill="white"/>
<path d="M123.867 65.7526C124.595 65.7526 125.184 65.1719 125.184 64.4555C125.184 63.7392 124.595 63.1584 123.867 63.1584C123.14 63.1584 122.551 63.7392 122.551 64.4555C122.551 65.1719 123.14 65.7526 123.867 65.7526Z" fill="white"/>
<path d="M224.923 129.634L205.832 117.09V20.0306C205.832 19.8586 205.762 19.6937 205.639 19.572C205.515 19.4504 205.348 19.3821 205.173 19.3821H204.186C204.011 19.3821 203.844 19.4504 203.72 19.572C203.597 19.6937 203.527 19.8586 203.527 20.0306V116.661L183.781 129.634L186.306 129.602L203.527 118.224V129.634H205.832V118.656L222.399 129.602L224.923 129.634Z" fill="#3F3D56"/>
<path d="M171.272 29.4344C171.097 29.4346 170.93 29.503 170.806 29.6246C170.683 29.7462 170.613 29.911 170.613 30.083V88.4516C170.614 88.6235 170.683 88.7883 170.806 88.9099C170.93 89.0315 171.097 89.0999 171.272 89.1001H238.093C238.268 89.0999 238.435 89.0315 238.558 88.9099C238.682 88.7883 238.751 88.6235 238.751 88.4516V30.083C238.751 29.911 238.682 29.7462 238.558 29.6246C238.435 29.503 238.268 29.4346 238.093 29.4344H171.272Z" fill="#E6E6E6"/>
<path d="M200.953 28.786C201.021 28.9755 201.148 29.1396 201.314 29.2557C201.481 29.3718 201.68 29.4343 201.884 29.4345H207.809C208.014 29.4343 208.213 29.3718 208.379 29.2557C208.546 29.1396 208.672 28.9755 208.741 28.786H200.953Z" fill="#3F3D56"/>
<path d="M187.457 89.7485H222.237C222.168 89.559 222.042 89.3949 221.875 89.2788C221.709 89.1627 221.509 89.1002 221.305 89.1H188.388C188.184 89.1002 187.985 89.1627 187.818 89.2788C187.652 89.3949 187.525 89.559 187.457 89.7485Z" fill="#3F3D56"/>
</g>
<defs>
<clipPath id="clip0">
<rect width="243" height="130" fill="white"/>
</clipPath>
</defs>
</svg>
