<svg width="360" height="260" viewBox="0 0 360 260" fill="none" xmlns="http://www.w3.org/2000/svg">
<path fill-rule="evenodd" clip-rule="evenodd" d="M-565 21.7147H-558.747C-552.493 21.7147 -539.093 21.7147 -526.587 56.4646C-514.08 91.2146 -501.573 160.714 -488.173 190.5C-475.667 220.286 -463.16 210.357 -449.76 180.572C-437.253 150.786 -424.747 101.143 -412.24 101.143C-398.84 101.143 -386.333 150.786 -373.827 140.857C-360.427 130.929 -347.92 61.4289 -335.413 56.4646C-322.907 51.5004 -309.507 111.072 -297 145.822C-284.493 180.572 -271.093 190.5 -258.587 195.464C-246.08 200.429 -233.573 200.429 -220.173 185.536C-207.667 170.643 -195.16 140.857 -181.76 150.786C-169.253 160.714 -156.747 210.357 -144.24 215.322C-130.84 220.286 -118.333 180.572 -105.827 155.75C-92.4266 130.929 -79.92 121 -67.4133 96.1789C-54.9067 71.3575 -41.5067 31.6433 -29 41.5718C-16.4933 51.5004 -3.09332 111.072 9.41339 121C21.92 130.929 34.4267 106.107 47.8267 86.2503C60.3333 66.3932 72.84 66.3932 86.24 81.286C98.7467 96.1789 111.253 111.072 123.76 116.036C137.16 121 149.667 101.143 162.173 96.1789C175.573 91.2146 188.08 101.143 200.587 86.2503C213.093 71.3575 226.357 73.2114 239 78.1757C251.643 83.14 264.907 91.2146 277.413 101.143C289.92 111.072 302.427 81.286 315.827 91.2146C328.333 101.143 340.84 111.072 354.24 121C366.747 130.929 379.253 140.857 391.76 111.072C405.16 81.286 417.667 51.5004 430.173 71.3575C443.573 91.2146 456.08 160.714 468.587 155.75C481.093 150.786 494.493 71.3575 500.747 31.6433V0L507 260H500.747C494.493 260 481.093 260 468.587 260C456.08 260 443.573 260 430.173 260C417.667 260 405.16 260 391.76 260C379.253 260 366.747 260 354.24 260C340.84 260 328.333 260 315.827 260C302.427 260 289.92 260 277.413 260C264.907 260 251.507 260 239 260C226.493 260 213.093 260 200.587 260C188.08 260 175.573 260 162.173 260C149.667 260 137.16 260 123.76 260C111.253 260 98.7467 260 86.24 260C72.84 260 60.3333 260 47.8267 260C34.4267 260 21.92 260 9.41339 260C-3.09332 260 -16.4933 260 -29 260C-41.5067 260 -54.9067 260 -67.4133 260C-79.92 260 -92.4266 260 -105.827 260C-118.333 260 -130.84 260 -144.24 260C-156.747 260 -169.253 260 -181.76 260C-195.16 260 -207.667 260 -220.173 260C-233.573 260 -246.08 260 -258.587 260C-271.093 260 -284.493 260 -297 260C-309.507 260 -322.907 260 -335.413 260C-347.92 260 -360.427 260 -373.827 260C-386.333 260 -398.84 260 -412.24 260C-424.747 260 -437.253 260 -449.76 260C-463.16 260 -475.667 260 -488.173 260C-501.573 260 -514.08 260 -526.587 260C-539.093 260 -552.493 260 -558.747 260H-565V21.7147Z" fill="#F2EDEE"/>
</svg>
