<svg width="360" height="282" viewBox="0 0 360 282" fill="none" xmlns="http://www.w3.org/2000/svg">
<path fill-rule="evenodd" clip-rule="evenodd" d="M-616 23.5521H-609.747C-603.493 23.5521 -590.093 23.5521 -577.587 61.2424C-565.08 98.9327 -552.573 174.313 -539.173 206.619C-526.667 238.925 -514.16 228.157 -500.76 195.851C-488.253 163.545 -475.747 109.701 -463.24 109.701C-449.84 109.701 -437.333 163.545 -424.827 152.776C-411.427 142.007 -398.92 66.6267 -386.413 61.2424C-373.907 55.8581 -360.507 120.47 -348 158.16C-335.493 195.851 -322.093 206.619 -309.587 212.004C-297.08 217.388 -284.573 217.388 -271.173 201.235C-258.667 185.082 -246.16 152.776 -232.76 163.545C-220.253 174.313 -207.747 228.157 -195.24 233.541C-181.84 238.925 -169.333 195.851 -156.827 168.929C-143.427 142.007 -130.92 131.239 -118.413 104.317C-105.907 77.3954 -92.5067 34.3208 -80 45.0894C-67.4933 55.8581 -54.0933 120.47 -41.5866 131.239C-29.0799 142.007 -16.5733 115.086 -3.17334 93.5484C9.33333 72.0111 21.84 72.0111 35.24 88.1641C47.7467 104.317 60.2533 120.47 72.76 125.854C86.16 131.239 98.6667 109.701 111.173 104.317C124.573 98.9327 137.08 109.701 149.587 93.5484C162.093 77.3954 175.357 79.4062 188 84.7905C200.643 90.1749 213.907 98.9328 226.413 109.701C238.92 120.47 251.427 88.1641 264.827 98.9328C277.333 109.701 289.84 120.47 303.24 131.239C315.747 142.007 328.253 152.776 340.76 120.47C354.16 88.1641 366.667 55.8581 379.173 77.3954C392.573 98.9327 405.08 174.313 417.587 168.929C430.093 163.545 443.493 77.3954 449.747 34.3208V0L456 282H449.747C443.493 282 430.093 282 417.587 282C405.08 282 392.573 282 379.173 282C366.667 282 354.16 282 340.76 282C328.253 282 315.747 282 303.24 282C289.84 282 277.333 282 264.827 282C251.427 282 238.92 282 226.413 282C213.907 282 200.507 282 188 282C175.493 282 162.093 282 149.587 282C137.08 282 124.573 282 111.173 282C98.6667 282 86.16 282 72.76 282C60.2533 282 47.7467 282 35.24 282C21.84 282 9.33333 282 -3.17334 282C-16.5733 282 -29.0799 282 -41.5866 282C-54.0933 282 -67.4933 282 -80 282C-92.5067 282 -105.907 282 -118.413 282C-130.92 282 -143.427 282 -156.827 282C-169.333 282 -181.84 282 -195.24 282C-207.747 282 -220.253 282 -232.76 282C-246.16 282 -258.667 282 -271.173 282C-284.573 282 -297.08 282 -309.587 282C-322.093 282 -335.493 282 -348 282C-360.507 282 -373.907 282 -386.413 282C-398.92 282 -411.427 282 -424.827 282C-437.333 282 -449.84 282 -463.24 282C-475.747 282 -488.253 282 -500.76 282C-514.16 282 -526.667 282 -539.173 282C-552.573 282 -565.08 282 -577.587 282C-590.093 282 -603.493 282 -609.747 282H-616V23.5521Z" fill="#FDFDFD"/>
</svg>
